# xmcd
#
# Track frame offsets:
# 150
# 19503
# 37693
# 51820
# 63809
# 78193
# 93099
# 105155
# 117653
# 134615
# 147593
# 160728
# 174259
# 195656
# 206272
# 218619
# 230562
# 248043
# 263821
#
# Disc length: 3715 seconds
#
#
# Revision: 0
# Processed by: cddbd v1.5.2PL0 Copyright (c) Steve Scherf et al.
# Submitted via: Nero 7, 11, 10, 0 
#
DISCID=f00e8113
DTITLE=Texas Northside Kings - Texas Northside Kings
DYEAR=2007
DGENRE=Blues
TTITLE0=You Belong To Me - Eve Monsees
TTITLE1=Radio Groove - Johnny Moeller
TTITLE2=I Don't Need No Sugar Mama - Shawn Pittman
TTITLE3=I Was Looking Back To See - Eve Monsees
TTITLE4=You're So Fine - Mike Keller
TTITLE5=Reap What You Sow - Shawn Pittman
TTITLE6=Slippin' And Slidin' - Nick Curran
TTITLE7=I'm A Samplin' Man - Johnny Moeller
TTITLE8=Spot Remover - Eve Monsees
TTITLE9=I Hear You Knocking - Seth Walker
TTITLE10=Drifting Blues - Shawn Pittman
TTITLE11=Red Hot Mama - Mike Keller
TTITLE12=Since I Fell For You - Seth Walker
TTITLE13=Hawaiian Hound - Eve Monsees
TTITLE14=Call 'Em How I See Them - Shawn Pittman
TTITLE15=I'll Be Around - Nick Curran
TTITLE16=Rockin' With Johnny - Johnny Moeller
TTITLE17=Oh Baby - Nick Curran
TTITLE18=Should Have Known From The Start - Shawn Pittman
EXTD=
EXTT0=You Belong To Me - Eve Monsees
EXTT1=Radio Groove - Johnny Moeller
EXTT2=I Don't Need No Sugar Mama - Shawn Pittman
EXTT3=I Was Looking Back To See - Eve Monsees
EXTT4=You're So Fine - Mike Keller
EXTT5=Reap What You Sow - Shawn Pittman
EXTT6=Slippin' And Slidin' - Nick Curran
EXTT7=I'm A Samplin' Man - Johnny Moeller
EXTT8=Spot Remover - Eve Monsees
EXTT9=I Hear You Knocking - Seth Walker
EXTT10=Drifting Blues - Shawn Pittman
EXTT11=Red Hot Mama - Mike Keller
EXTT12=Since I Fell For You - Seth Walker
EXTT13=Hawaiian Hound - Eve Monsees
EXTT14=Call 'Em How I See Them - Shawn Pittman
EXTT15=I'll Be Around - Nick Curran
EXTT16=Rockin' With Johnny - Johnny Moeller
EXTT17=Oh Baby - Nick Curran
EXTT18=Should Have Known From The Start - Shawn Pittman
PLAYORDER=
